<?xml version="1.0" encoding="UTF-8" standalone="no"?>
<svg width="115px" height="37px" viewBox="0 0 115 37" version="1.1" xmlns="http://www.w3.org/2000/svg" xmlns:xlink="http://www.w3.org/1999/xlink" xmlns:sketch="http://www.bohemiancoding.com/sketch/ns">
    <!-- Generator: Sketch 3.3.3 (12081) - http://www.bohemiancoding.com/sketch -->
    <title>Artboard 1</title>
    <desc>Created with Sketch.</desc>
    <defs></defs>
    <g id="Page-1" stroke="none" stroke-width="1" fill="none" fill-rule="evenodd" sketch:type="MSPage">
        <g id="Artboard-1" sketch:type="MSArtboardGroup" fill="#FFFFFF">
            <path d="M4.4237617,37 L3.2616523,37 L3.2616523,28.0380859 L0.0966133,28.0380859 L0.0966133,27.0058594 L7.5888008,27.0058594 L7.5888008,28.0380859 L4.4237617,28.0380859 L4.4237617,37 L4.4237617,37 Z M22.4805979,37 L21.3184885,37 L21.3184885,32.296875 L16.0548166,32.296875 L16.0548166,37 L14.8927072,37 L14.8927072,27.0058594 L16.0548166,27.0058594 L16.0548166,31.2578125 L21.3184885,31.2578125 L21.3184885,27.0058594 L22.4805979,27.0058594 L22.4805979,37 L22.4805979,37 Z M36.593098,37 L31.021809,37 L31.021809,27.0058594 L36.593098,27.0058594 L36.593098,28.0380859 L32.1839184,28.0380859 L32.1839184,31.2578125 L36.3264965,31.2578125 L36.3264965,32.2832031 L32.1839184,32.2832031 L32.1839184,35.9609375 L36.593098,35.9609375 L36.593098,37 L36.593098,37 Z M49.0307935,37 L45.6401685,28.140625 L45.585481,28.140625 C45.6492834,28.8424514 45.6811842,29.6764275 45.6811842,30.6425781 L45.6811842,37 L44.607942,37 L44.607942,27.0058594 L46.357942,27.0058594 L49.522981,35.25 L49.5776685,35.25 L52.7700514,27.0058594 L54.5063795,27.0058594 L54.5063795,37 L53.3442701,37 L53.3442701,30.5605469 C53.3442701,29.8222619 53.3761708,29.0201866 53.4399732,28.1542969 L53.3852857,28.1542969 L49.967317,37 L49.0307935,37 L49.0307935,37 Z M68.6188797,37 L63.0475906,37 L63.0475906,27.0058594 L68.6188797,27.0058594 L68.6188797,28.0380859 L64.2097,28.0380859 L64.2097,31.2578125 L68.3522781,31.2578125 L68.3522781,32.2832031 L64.2097,32.2832031 L64.2097,35.9609375 L68.6188797,35.9609375 L68.6188797,37 L68.6188797,37 Z" id="Shape" fill-opacity="0.4" sketch:type="MSShapeGroup"></path>
            <path d="M4.50030138,8.53686976 L5.20384918,8.53686976 C5.85528558,8.53686976 6.32431276,8.33275608 6.61094478,7.9245226 L10.8843462,1.72287903 C11.1188633,1.38413208 11.3859482,1.15396134 11.685609,1.03235989 C11.9852698,0.910758427 12.35224,0.849958607 12.786531,0.849958607 L16.6169579,0.849958607 L10.9885755,8.5238411 C10.7888018,8.80178731 10.5803452,9.03195805 10.3631997,9.21436023 C10.1460542,9.39676241 9.9245692,9.54876198 9.69873791,9.67036344 C10.028799,9.79196489 10.3306267,9.95916442 10.60423,10.171967 C10.8778333,10.3847695 11.1275468,10.6692258 11.3533781,11.0253444 L17.0859898,19.8327206 L13.1513336,19.8327206 C12.8994449,19.8327206 12.6844741,19.8153492 12.5064148,19.7806059 C12.3283555,19.7458626 12.1741845,19.6937485 12.0438972,19.6242619 C11.91361,19.5547754 11.800696,19.4700899 11.705152,19.370203 C11.609608,19.2703161 11.5184082,19.1552307 11.4315501,19.0249434 L7.1320913,12.4194113 C6.97574654,12.1762084 6.77814719,12.004666 6.53928714,11.9047791 C6.30042712,11.8048922 5.97688522,11.7549495 5.56865175,11.7549495 L4.50030138,11.7549495 L4.50030138,19.8327206 L0.0966133,19.8327206 L0.0966133,0.849958607 L4.50030138,0.849958607 L4.50030138,8.53686976 L4.50030138,8.53686976 Z M36.368411,19.8327206 L32.9549013,19.8327206 C32.5727252,19.8327206 32.2578691,19.7436923 32.0103232,19.565633 C31.7627774,19.3875736 31.5912351,19.1595744 31.4956911,18.8816282 L30.375226,15.5723478 L23.1573468,15.5723478 L22.0368817,18.8816282 C21.9500235,19.1248311 21.7806526,19.3441447 21.5287639,19.5395756 C21.2768752,19.7350066 20.9685332,19.8327206 20.6037288,19.8327206 L17.1641618,19.8327206 L24.5123277,0.849958607 L29.0202451,0.849958607 L36.368411,19.8327206 L36.368411,19.8327206 Z M24.1735825,12.5757553 L29.3589903,12.5757553 L27.6131495,7.37731875 C27.5002338,7.04725762 27.3677771,6.65857306 27.2157753,6.21125342 C27.0637735,5.76393377 26.9139454,5.27970662 26.7662864,4.7585575 C26.6273133,5.28839243 26.4839995,5.77913382 26.3363405,6.23079641 C26.1886816,6.68245901 26.0497106,7.07331494 25.9194233,7.40337608 L24.1735825,12.5757553 L24.1735825,12.5757553 Z M42.3094813,16.3149816 L49.3449593,16.3149816 L49.3449593,19.8327206 L37.9057932,19.8327206 L37.9057932,0.849958607 L42.3094813,0.849958607 L42.3094813,16.3149816 L42.3094813,16.3149816 Z M55.8332335,16.3149816 L62.8687115,16.3149816 L62.8687115,19.8327206 L51.4295454,19.8327206 L51.4295454,0.849958607 L55.8332335,0.849958607 L55.8332335,16.3149816 L55.8332335,16.3149816 Z M71.2852278,12.6148413 L71.2852278,19.8327206 L66.8815397,19.8327206 L66.8815397,12.6148413 L60.0024056,0.849958607 L63.8849472,0.849958607 C64.2671233,0.849958607 64.5711223,0.938986912 64.7969536,1.1170462 C65.0227849,1.29510552 65.2051844,1.52310479 65.3441574,1.801051 L68.028062,7.3252041 C68.2452075,7.76818089 68.4449783,8.17640826 68.6273805,8.54989842 C68.8097827,8.92338859 68.970468,9.29253041 69.109441,9.65733477 C69.2397283,9.28384461 69.3960707,8.91035992 69.5784729,8.53686976 C69.7608751,8.16337959 69.9563031,7.75949508 70.1647627,7.3252041 L72.82261,1.801051 C72.8747249,1.68813536 72.9463818,1.57522142 73.0375829,1.46230577 C73.128784,1.34939012 73.2330122,1.24733328 73.3502708,1.15613219 C73.4675294,1.0649311 73.6021576,0.991102696 73.7541594,0.934644917 C73.9061612,0.878187093 74.0733607,0.849958607 74.2557629,0.849958607 L78.1643618,0.849958607 L71.2852278,12.6148413 L71.2852278,12.6148413 Z M94.5283625,19.8327206 L91.1148528,19.8327206 C90.7326772,19.8327206 90.4178202,19.7436923 90.1702747,19.565633 C89.9227292,19.3875736 89.7511867,19.1595744 89.6556425,18.8816282 L88.5351775,15.5723478 L81.3172982,15.5723478 L80.1968332,18.8816282 C80.1099751,19.1248311 79.9406041,19.3441447 79.6887154,19.5395756 C79.4368267,19.7350066 79.1284847,19.8327206 78.7636803,19.8327206 L75.3241133,19.8327206 L82.6722792,0.849958607 L87.1801966,0.849958607 L94.5283625,19.8327206 L94.5283625,19.8327206 Z M82.333534,12.5757553 L87.5189418,12.5757553 L85.773101,7.37731875 C85.6601853,7.04725762 85.5277286,6.65857306 85.3757268,6.21125342 C85.2237249,5.76393377 85.0738968,5.27970662 84.9262379,4.7585575 C84.7872648,5.28839243 84.643951,5.77913382 84.496292,6.23079641 C84.348633,6.68245901 84.209662,7.07331494 84.0793748,7.40337608 L82.333534,12.5757553 L82.333534,12.5757553 Z M106.645019,4.70644285 C106.514732,4.91490253 106.377932,5.07124487 106.234616,5.17547471 C106.0913,5.27970456 105.90673,5.33181867 105.680898,5.33181867 C105.481125,5.33181867 105.266153,5.26884746 105.035979,5.14290306 C104.805805,5.01695865 104.545234,4.87581627 104.254259,4.71947151 C103.963284,4.56312674 103.631057,4.42198436 103.257567,4.29603996 C102.884076,4.17009556 102.458477,4.10712435 101.980758,4.10712435 C101.155605,4.10712435 100.541092,4.2830095 100.137202,4.6347852 C99.7333115,4.9865609 99.5313691,5.46210233 99.5313691,6.06142379 C99.5313691,6.44359986 99.6529687,6.76062748 99.8961716,7.01251619 C100.139375,7.2644049 100.458573,7.48154716 100.853778,7.66394934 C101.248984,7.84635152 101.700639,8.01355105 102.208759,8.16555286 C102.71688,8.31755468 103.235849,8.48692559 103.765685,8.67367072 C104.29552,8.86041585 104.814489,9.07972949 105.32261,9.3316182 C105.83073,9.58350691 106.282386,9.90487739 106.677591,10.2957393 C107.072796,10.6866011 107.391995,11.1621426 107.635197,11.7223779 C107.8784,12.2826131 108,12.9579254 108,13.7483349 C108,14.6256026 107.848,15.4464002 107.543997,16.2107522 C107.239993,16.9751043 106.799195,17.6417309 106.221588,18.210652 C105.64398,18.7795731 104.931754,19.2268861 104.084887,19.5526043 C103.238019,19.8783225 102.27608,20.0411792 101.199038,20.0411792 C100.608402,20.0411792 100.006918,19.9803793 99.3945681,19.8587779 C98.7822183,19.7371764 98.1894195,19.565634 97.6161556,19.3441457 C97.0428917,19.1226573 96.5043785,18.8599152 96.0006014,18.5559116 C95.4968243,18.2519079 95.0581969,17.913166 94.6847064,17.5396759 L95.9875727,15.4811471 C96.0831169,15.3248024 96.2177452,15.1988599 96.3914613,15.1033159 C96.5651774,15.0077719 96.7519204,14.9600006 96.9516938,14.9600006 C97.212268,14.9600006 97.4750103,15.0425146 97.7399279,15.2075452 C98.0048456,15.3725758 98.3045012,15.5549753 98.6389057,15.754749 C98.9733101,15.9545228 99.3576512,16.1369223 99.7919423,16.3019529 C100.226233,16.4669835 100.738689,16.5494975 101.329325,16.5494975 C102.12842,16.5494975 102.749447,16.3736123 103.192423,16.0218366 C103.6354,15.6700609 103.856885,15.1120055 103.856885,14.3476534 C103.856885,13.9046767 103.735286,13.5442206 103.492083,13.2662744 C103.24888,12.9883282 102.929681,12.7581575 102.534476,12.5757553 C102.139271,12.3933531 101.689786,12.2326678 101.186009,12.0936947 C100.682232,11.9547217 100.165434,11.8005506 99.6355984,11.6311772 C99.1057631,11.4618038 98.5889645,11.2533472 98.0851875,11.0058014 C97.5814104,10.7582555 97.131926,10.4325422 96.7367209,10.0286517 C96.3415157,9.62476114 96.022317,9.12099117 95.7791141,8.51732676 C95.5359112,7.91366235 95.4143116,7.16886455 95.4143116,6.28291107 C95.4143116,5.57067396 95.5576251,4.87581888 95.8442575,4.19832499 C96.1308898,3.5208311 96.5521451,2.91717577 97.1080378,2.38734084 C97.6639304,1.85750591 98.3457571,1.43407858 99.1535378,1.1170462 C99.9613185,0.800013812 100.886345,0.6415 101.928643,0.6415 C102.510593,0.6415 103.077334,0.687099862 103.628884,0.778300961 C104.180433,0.86950206 104.703746,1.00413019 105.198837,1.18218951 C105.693929,1.36024884 106.156442,1.57304814 106.58639,1.820594 C107.016338,2.06813985 107.40068,2.34825332 107.739427,2.66094276 L106.645019,4.70644285 L106.645019,4.70644285 Z" id="Shape" fill-opacity="0.6" sketch:type="MSShapeGroup"></path>
        </g>
    </g>
</svg>